<?xml version="1.0" standalone="no"?>
<!DOCTYPE svg PUBLIC "-//W3C//DTD SVG 20010904//EN"
 "http://www.w3.org/TR/2001/REC-SVG-20010904/DTD/svg10.dtd">
<svg version="1.0" xmlns="http://www.w3.org/2000/svg"
 width="167.000000pt" height="180.000000pt" viewBox="0 0 167.000000 180.000000"
 preserveAspectRatio="xMidYMid meet">

<g transform="translate(0.000000,180.000000) scale(0.100000,-0.100000)"
fill="#000000" stroke="none">
<path d="M425 1506 c-79 -36 -89 -18 155 -287 122 -134 230 -252 239 -262 16
-17 29 -4 254 243 131 144 235 266 231 272 -13 20 -90 48 -137 48 -72 0 -113
-27 -227 -150 l-104 -112 -115 121 c-64 66 -129 125 -144 131 -39 14 -116 12
-152 -4z"/>
<path d="M237 1347 c3 -5 -4 -6 -15 -3 -11 4 -23 2 -27 -4 -3 -5 -1 -10 5 -10
7 0 9 -7 6 -16 -4 -11 1 -18 14 -21 24 -6 27 -26 3 -21 -10 2 -23 13 -29 26
-16 33 -23 37 -17 10 8 -32 22 -48 42 -48 12 0 17 -9 16 -34 0 -25 -3 -32 -12
-24 -6 5 -10 18 -8 30 3 12 0 18 -8 16 -14 -5 -48 27 -39 37 4 3 -1 3 -9 0
-13 -5 -4 -19 39 -63 31 -31 55 -60 54 -63 0 -3 15 -21 33 -39 19 -19 35 -31
35 -27 0 4 13 1 30 -8 16 -8 33 -16 37 -18 5 -1 8 -14 8 -29 1 -14 -3 -24 -7
-22 -5 3 -7 12 -6 21 2 8 -7 22 -20 30 -21 15 -22 14 -16 -3 11 -31 77 -95 92
-89 9 3 12 0 9 -9 -3 -8 3 -26 14 -40 22 -28 22 -71 1 -71 -6 0 -22 -12 -35
-26 -55 -65 -165 -184 -189 -207 -15 -14 -25 -29 -22 -33 3 -5 -1 -9 -9 -9 -8
0 -21 -8 -28 -17 -8 -10 -9 -14 -2 -10 6 4 14 3 18 -3 5 -9 -7 -14 -26 -12
-13 2 -41 -37 -34 -47 13 -22 95 -51 142 -51 84 1 117 24 273 195 80 87 166
183 192 212 l48 54 -23 23 c-12 12 -65 69 -117 127 -52 57 -115 124 -140 149
-24 25 -43 49 -41 54 1 5 -4 4 -12 -2 -8 -7 -23 -9 -32 -5 -11 4 -16 2 -12 -4
3 -5 0 -10 -7 -10 -7 0 -13 6 -13 13 0 7 5 11 10 7 5 -3 6 3 3 15 -4 12 -2 23
5 28 9 5 10 2 6 -10 -5 -11 -3 -15 5 -10 7 5 8 3 3 -6 -6 -9 -4 -11 5 -5 9 6
11 4 5 -6 -6 -11 -5 -12 5 -2 11 10 10 16 -5 33 -10 11 -20 18 -23 15 -3 -2
-18 7 -34 20 -16 14 -35 25 -41 25 -7 -1 -1 -7 12 -14 23 -13 22 -13 -20 -11
-54 4 -100 -4 -93 -16 3 -5 0 -9 -6 -9 -22 0 -3 25 31 42 l34 17 -32 -1 c-17
-1 -29 -6 -26 -11z m272 -156 l20 -28 -22 1 c-16 1 -22 8 -24 29 -2 34 1 34
26 -2z m-215 -42 c-2 -4 3 -15 12 -23 8 -9 11 -16 6 -16 -5 0 -17 11 -25 23
-12 19 -13 24 -2 24 8 0 12 -4 9 -8z m292 -41 c12 -14 13 -18 3 -10 -9 6 -18
10 -21 7 -2 -3 -5 2 -5 10 0 19 0 19 23 -7z m0 -43 c-3 -8 2 -19 10 -25 8 -7
14 -18 14 -26 0 -8 -9 -4 -24 11 -20 20 -24 34 -17 63 1 2 6 0 12 -3 6 -4 8
-13 5 -20z m51 -15 c13 0 14 -2 2 -17 -12 -15 -12 -16 3 -10 10 3 22 -1 30
-11 10 -12 10 -14 0 -8 -23 14 -26 -24 -3 -40 11 -8 21 -21 21 -29 0 -9 -9 -5
-25 11 -14 14 -25 34 -25 44 0 11 -3 20 -7 20 -9 0 -33 48 -33 64 0 6 5 3 11
-6 5 -10 17 -18 26 -18z m-262 0 c3 -5 1 -10 -4 -10 -6 0 -11 5 -11 10 0 6 2
10 4 10 3 0 8 -4 11 -10z m205 -41 c0 -6 -4 -7 -10 -4 -5 3 -10 11 -10 16 0 6
5 7 10 4 6 -3 10 -11 10 -16z m-20 -49 l0 -40 -45 0 c-36 0 -46 4 -55 23 -11
21 -10 21 4 3 13 -16 16 -17 16 -4 0 19 -36 52 -49 44 -5 -4 -12 -3 -14 1 -3
5 28 9 69 11 l74 2 0 -40z m138 18 c7 -7 12 -21 12 -31 0 -12 5 -17 14 -14 15
6 53 -29 43 -39 -9 -10 -28 6 -21 18 4 7 2 8 -5 4 -9 -6 -9 -11 -1 -21 8 -9 8
-20 2 -31 -6 -11 -11 -13 -16 -5 -4 6 -2 11 4 11 7 0 8 6 1 19 -6 10 -7 21 -4
25 3 3 -1 6 -10 6 -9 0 -17 8 -17 17 0 9 -7 25 -17 35 -18 20 -4 25 15 6z
m-38 -48 c0 -5 -2 -10 -4 -10 -3 0 -8 5 -11 10 -3 6 -1 10 4 10 6 0 11 -4 11
-10z m-190 -92 c0 7 4 11 8 8 4 -2 60 -6 124 -8 64 -1 114 -6 112 -10 -3 -4
-12 -4 -21 -1 -12 5 -14 3 -8 -8 7 -11 5 -11 -10 1 -17 14 -18 14 -6 -7 9 -19
9 -22 -3 -17 -8 3 -17 13 -19 22 -3 10 -4 1 -3 -18 3 -40 -10 -74 -25 -65 -5
4 -9 -1 -9 -9 0 -9 -7 -16 -15 -16 -8 0 -14 -4 -13 -8 2 -5 -13 -26 -33 -48
-37 -41 -77 -76 -67 -59 4 6 3 17 -1 24 -6 9 -10 5 -13 -13 -3 -14 -1 -26 4
-26 6 0 -4 -16 -21 -35 -17 -19 -33 -35 -37 -34 -3 0 -18 -10 -32 -24 -34 -32
-68 -39 -64 -14 2 14 -5 17 -42 17 -56 0 -83 -9 -64 -21 17 -11 31 -11 24 0
-3 4 7 6 22 3 l27 -5 -29 -8 c-21 -6 -39 -3 -67 11 -44 23 -54 36 -37 47 19
11 39 13 32 2 -3 -5 1 -9 8 -10 10 0 10 -2 1 -6 -7 -2 -13 -9 -13 -15 0 -7 4
-7 13 0 6 5 44 12 82 15 110 9 119 11 128 25 4 6 5 18 1 25 -5 9 -4 9 7 0 24
-23 33 -14 11 10 -27 28 -28 37 -4 37 14 0 15 -2 2 -10 -9 -6 -10 -10 -3 -10
28 0 43 14 43 42 0 21 4 27 13 21 25 -15 47 -14 40 4 -4 9 -2 14 3 10 6 -3 16
-2 24 3 10 6 6 8 -15 6 -33 -3 -65 9 -65 24 0 6 7 10 15 10 8 0 14 -5 13 -12
-2 -7 12 -12 37 -12 39 0 40 0 40 35 -1 21 4 36 11 36 7 0 10 -7 7 -16 -3 -12
-1 -12 11 3 9 11 20 15 28 10 8 -4 10 -3 5 2 -9 9 -19 11 -105 13 -33 1 -51 5
-47 11 3 6 1 10 -4 10 -6 0 -11 -4 -11 -10 0 -5 -15 -8 -34 -6 -33 5 -33 4
-30 -31 2 -29 0 -32 -9 -19 -11 15 -15 13 -40 -10 -40 -36 -45 -24 -6 14 18
17 37 28 42 25 6 -4 8 0 4 9 -7 18 42 67 61 60 7 -2 12 1 12 7 0 6 -5 11 -11
11 -5 0 -7 5 -3 11 4 8 9 7 15 -2 7 -11 9 -11 9 -1z m-94 -133 c-3 -10 1 -15
12 -16 15 -1 15 -2 1 -6 -11 -3 -15 -11 -12 -24 3 -10 0 -19 -6 -19 -10 0 -15
14 -12 33 0 4 -3 7 -9 7 -5 0 -2 9 7 20 21 24 27 26 19 5z m-61 -71 c0 -20 -5
-29 -16 -29 -9 0 -28 -6 -42 -14 -19 -10 -24 -21 -23 -44 1 -23 -4 -33 -17
-35 -13 -3 -18 1 -16 15 2 10 0 24 -4 30 -6 9 -3 11 7 7 9 -3 17 -1 17 5 1 6
2 15 3 19 2 15 70 80 81 78 6 -2 10 -16 10 -32z m19 -115 c-5 -9 -44 1 -44 10
0 4 5 12 12 19 9 9 14 7 24 -6 7 -9 10 -20 8 -23z"/>
<path d="M490 1180 c0 -5 5 -10 11 -10 5 0 7 5 4 10 -3 6 -8 10 -11 10 -2 0
-4 -4 -4 -10z"/>
<path d="M420 790 c-8 -5 -11 -12 -8 -16 4 -3 14 1 23 10 18 17 9 21 -15 6z"/>
<path d="M440 570 c0 -5 5 -10 10 -10 6 0 10 5 10 10 0 6 -4 10 -10 10 -5 0
-10 -4 -10 -10z"/>
<path d="M330 480 c-6 -11 -9 -20 -7 -20 2 0 14 9 27 20 18 16 19 20 7 20 -9
0 -21 -9 -27 -20z"/>
<path d="M264 618 c-23 -27 -24 -29 -3 -10 26 23 45 30 34 12 -3 -5 -2 -10 4
-10 5 0 9 9 8 20 -2 27 -8 25 -43 -12z"/>
<path d="M217 545 c-4 -8 -3 -16 1 -19 4 -3 9 4 9 15 2 23 -3 25 -10 4z"/>
<path d="M305 1350 c-3 -5 -1 -10 4 -10 6 0 11 5 11 10 0 6 -2 10 -4 10 -3 0
-8 -4 -11 -10z"/>
<path d="M1313 1340 c-24 -10 -43 -23 -43 -28 0 -5 -9 -13 -19 -18 -17 -8 -18
-10 -4 -23 13 -12 15 -12 11 -1 -7 21 30 52 64 53 21 1 32 8 34 20 1 9 2 17 1
17 -1 0 -21 -9 -44 -20z m34 -6 c-3 -3 -12 -4 -19 -1 -8 3 -5 6 6 6 11 1 17
-2 13 -5z"/>
<path d="M1388 1353 c6 -2 18 -2 25 0 6 3 1 5 -13 5 -14 0 -19 -2 -12 -5z"/>
<path d="M1430 1345 c0 -1 8 -9 17 -16 14 -12 16 -12 8 0 -6 11 -4 13 11 7 38
-16 49 -17 30 -5 -18 11 -66 22 -66 14z"/>
<path d="M1364 1316 c-3 -8 -4 -29 -2 -48 2 -24 8 -33 21 -32 14 2 15 -1 6
-12 -7 -8 -7 -14 -1 -14 5 0 12 -10 15 -22 7 -25 -19 -61 -36 -51 -5 3 -7 1
-4 -4 4 -6 -4 -18 -18 -27 -14 -9 -24 -22 -22 -29 1 -6 -4 -11 -11 -9 -8 1
-11 -1 -9 -5 3 -5 -1 -14 -9 -21 -11 -10 -14 -10 -15 0 0 7 -7 -2 -15 -19 -8
-18 -19 -33 -25 -33 -5 0 -7 -6 -3 -12 4 -7 4 -10 0 -6 -5 4 -9 29 -10 57 -1
27 2 44 6 38 4 -7 8 -20 8 -30 0 -10 5 -15 10 -12 6 3 10 15 10 26 0 22 22 49
39 49 6 0 11 12 11 26 0 22 3 25 23 20 19 -4 26 0 35 20 14 30 15 37 4 30 -5
-3 -8 5 -8 17 1 19 -5 22 -41 25 -37 3 -43 6 -43 25 0 17 -2 19 -9 7 -6 -8 -8
-17 -6 -20 2 -4 -2 -7 -10 -7 -8 0 -12 4 -9 8 2 4 -1 11 -7 14 -6 4 -29 -11
-52 -34 -32 -33 -38 -44 -28 -54 10 -9 11 -9 6 4 -4 10 -2 20 3 23 5 3 12 -4
14 -17 4 -19 0 -23 -23 -22 -15 0 -25 3 -22 7 13 23 -9 3 -36 -31 -24 -30 -28
-40 -17 -44 11 -4 13 -1 9 10 -5 12 -3 14 7 8 9 -5 11 -4 6 3 -4 7 -3 12 2 12
5 0 10 -11 10 -24 0 -19 -5 -23 -28 -21 -27 2 -68 -20 -57 -31 3 -4 2 -15 -3
-25 -7 -12 -6 -19 3 -22 6 -2 -1 -4 -17 -4 -15 0 -24 2 -20 6 5 3 15 15 23 26
7 11 0 5 -18 -13 -17 -18 -31 -38 -31 -44 0 -9 3 -9 12 0 7 7 23 12 36 12 36
0 24 -32 -21 -53 -20 -9 -37 -24 -38 -32 -4 -78 -3 -83 51 -145 30 -35 56 -57
58 -51 2 6 7 9 12 6 4 -3 7 6 6 19 -1 17 -7 24 -18 23 -10 -1 -18 -5 -18 -9 0
-4 -4 -8 -9 -8 -4 0 -7 21 -6 48 l1 47 45 5 46 6 -4 -41 c-3 -22 -9 -44 -14
-49 -11 -13 -12 -29 0 -22 5 3 9 -5 9 -18 0 -18 -5 -22 -19 -19 -32 9 -21 -15
32 -70 28 -28 67 -71 87 -95 69 -84 178 -114 267 -73 46 21 76 50 54 52 -8 1
-18 1 -23 0 -5 -1 -6 4 -3 11 2 7 -20 38 -49 68 -44 45 -56 52 -66 42 -7 -8
-8 -13 -3 -12 6 2 16 2 24 1 25 -2 2 -15 -29 -16 -21 -1 -27 2 -20 9 14 14 13
29 -1 20 -7 -4 -10 -1 -7 7 3 8 1 22 -4 31 -6 14 -5 16 7 12 8 -3 13 -9 11
-13 -9 -14 9 -30 24 -21 13 8 12 10 -3 10 -9 0 -16 4 -15 8 2 5 -27 41 -64 81
-38 40 -68 68 -68 62 0 -5 8 -15 18 -20 16 -10 15 -10 -3 -12 -17 -1 -16 -2 5
-9 19 -5 13 -7 -25 -7 -38 -1 -45 1 -27 8 22 8 31 29 12 29 -5 0 -10 -5 -10
-12 0 -9 -3 -9 -11 -1 -14 14 -3 67 12 57 8 -4 7 -9 -2 -15 -7 -4 -11 -10 -8
-13 2 -3 11 -1 19 4 12 8 11 13 -6 32 -37 41 -37 46 8 97 84 95 212 237 260
289 26 29 48 57 48 62 0 19 -19 19 -44 -1 -29 -23 -47 -19 -27 5 10 12 9 14
-7 9 -11 -2 -23 0 -26 6 -10 16 -66 13 -72 -3z m136 -41 c-7 -9 -15 -13 -17
-11 -7 7 7 26 19 26 6 0 6 -6 -2 -15z m-37 -34 c5 -19 -9 -41 -25 -41 -4 0 -8
5 -8 10 0 6 7 10 15 10 13 0 14 4 5 20 -6 11 -7 20 -2 20 6 0 12 -9 15 -19z
m-33 -16 c-7 -8 -17 -15 -22 -15 -6 0 -5 7 2 15 7 8 17 15 22 15 6 0 5 -7 -2
-15z m-214 -63 c-4 -3 -11 0 -16 8 -15 24 -11 33 6 15 9 -9 13 -19 10 -23z
m44 28 c0 -5 -4 -10 -10 -10 -5 0 -10 5 -10 10 0 6 5 10 10 10 6 0 10 -4 10
-10z m170 0 c0 -5 -4 -10 -10 -10 -5 0 -10 5 -10 10 0 6 5 10 10 10 6 0 10 -4
10 -10z m-218 -190 c0 -31 -5 -46 -17 -53 -10 -5 -13 -12 -8 -16 5 -3 0 -15
-11 -25 -16 -16 -18 -17 -13 -3 3 9 2 17 -3 17 -11 0 -13 -11 -4 -34 3 -8 11
-13 18 -10 7 3 18 -2 25 -9 9 -12 8 -16 -3 -20 -11 -4 -13 -1 -9 11 6 15 3 14
-15 -2 -20 -17 -22 -18 -22 -2 0 9 -4 15 -9 11 -5 -3 -13 0 -17 6 -4 8 -3 9 4
5 7 -4 12 -1 12 8 0 9 -4 16 -10 16 -5 0 -10 20 -10 44 0 46 9 56 56 56 19 0
24 5 24 27 0 14 3 24 6 21 3 -3 5 -25 6 -48z m-204 -174 c-17 -12 -17 -14 2
-31 11 -10 20 -23 20 -29 -1 -16 -50 43 -50 60 0 8 9 14 23 14 20 -1 21 -2 5
-14z m22 -16 c0 -5 -4 -10 -10 -10 -5 0 -10 5 -10 10 0 6 5 10 10 10 6 0 10
-4 10 -10z m306 -110 c1 -9 -7 -17 -17 -17 -11 -1 -19 3 -19 8 0 6 -4 8 -8 5
-7 -4 -8 23 -3 58 2 15 46 -36 47 -54z m-266 30 c0 -5 -2 -10 -4 -10 -3 0 -8
5 -11 10 -3 6 -1 10 4 10 6 0 11 -4 11 -10z m125 -95 c-1 -52 -5 -58 -23 -39
-7 8 -8 14 -2 14 5 0 10 5 10 11 0 6 -7 9 -15 5 -8 -3 -15 -2 -15 3 0 4 -12
13 -26 19 -34 16 -24 27 28 29 l44 2 -1 -44z m300 -108 c1 -14 8 -21 18 -21 9
1 14 -2 11 -7 -7 -13 -28 -11 -42 3 -9 9 -9 15 1 26 10 13 9 14 -10 2 -17 -11
-19 -17 -11 -27 6 -8 8 -17 4 -20 -4 -4 -11 -1 -16 7 -8 12 -10 12 -10 1 0
-10 -14 -12 -62 -8 -35 3 -57 3 -50 0 13 -5 17 -23 4 -23 -5 0 -18 9 -30 20
-12 12 -22 18 -22 15 0 -3 -11 2 -25 11 -14 9 -22 20 -20 25 3 4 -3 14 -15 21
-23 15 -27 30 -5 21 9 -3 23 -20 32 -37 10 -19 18 -26 21 -17 3 10 6 10 12 1
10 -16 83 -32 77 -17 -3 8 9 11 39 8 39 -3 44 -1 44 18 0 12 5 21 11 21 5 0 7
-6 3 -12 -5 -9 -2 -9 9 1 18 14 23 26 7 16 -5 -3 -17 9 -26 27 l-16 33 33 -33
c18 -18 33 -43 34 -55z m-218 46 c-3 -24 -22 -33 -22 -11 0 7 -11 18 -25 25
-24 13 -24 13 13 11 33 -2 37 -5 34 -25z m60 -59 c-3 -3 -12 -4 -19 -1 -8 3
-5 6 6 6 11 1 17 -2 13 -5z m163 -38 c0 -2 -13 -8 -28 -14 -21 -7 -29 -7 -29
2 0 6 13 12 29 13 15 1 28 1 28 -1z"/>
<path d="M1290 732 c0 -10 22 -32 32 -32 15 0 8 15 -12 28 -11 7 -20 9 -20 4z"/>
<path d="M1143 653 c9 -9 20 -13 24 -9 4 4 1 11 -7 16 -25 16 -35 11 -17 -7z"/>
<path d="M134 1309 c-3 -6 -3 -13 0 -16 3 -4 6 -1 6 5 0 6 7 9 15 6 8 -4 15
-4 15 -1 0 11 -30 16 -36 6z"/>
<path d="M1375 1159 c-11 -17 1 -21 15 -4 8 9 8 15 2 15 -6 0 -14 -5 -17 -11z"/>
<path d="M945 957 c-4 -15 -11 -24 -16 -22 -4 3 -16 -6 -25 -20 -16 -25 -16
-27 6 -50 13 -13 27 -22 31 -19 13 8 11 34 -2 34 -6 0 -8 -7 -4 -17 4 -13 3
-15 -5 -7 -12 12 -3 47 11 38 9 -5 13 14 10 51 -1 14 1 16 7 8 6 -10 14 -10
35 0 15 6 27 15 27 20 0 10 -7 9 -30 -5 -17 -11 -22 -10 -30 1 -7 12 -10 9
-15 -12z m-13 -53 c-18 -25 -32 -31 -32 -14 0 6 5 10 10 10 6 0 9 3 9 8 -2 14
1 19 15 19 12 0 11 -5 -2 -23z"/>
<path d="M601 601 c-129 -142 -234 -262 -234 -267 0 -13 58 -45 99 -54 43 -10
121 8 156 36 13 10 66 65 118 122 l94 103 120 -125 c110 -113 125 -125 169
-134 58 -12 122 0 160 31 l28 22 -221 245 c-122 135 -229 253 -238 262 -16 16
-31 2 -251 -241z"/>
</g>
</svg>
